<svg xmlns="http://www.w3.org/2000/svg" xmlns:xlink="http://www.w3.org/1999/xlink" width="500" zoomAndPan="magnify" viewBox="0 0 375 374.999991" height="500" preserveAspectRatio="xMidYMid meet" version="1.0"><defs><clipPath id="ba2ee1bba1"><path d="M 50.90625 36.515625 L 266.90625 36.515625 L 266.90625 320.765625 L 50.90625 320.765625 Z M 50.90625 36.515625 " clip-rule="nonzero"/></clipPath><clipPath id="2dc403cd92"><path d="M 167.761719 171 L 337 171 L 337 339.746094 L 167.761719 339.746094 Z M 167.761719 171 " clip-rule="nonzero"/></clipPath></defs><g clip-path="url(#ba2ee1bba1)"><path fill="#1e419b" d="M 262.617188 68.523438 L 220.84375 68.523438 L 220.84375 60.8125 C 220.84375 58.28125 218.789062 56.226562 216.257812 56.226562 L 188.304688 56.226562 C 186.128906 50.941406 182.558594 46.359375 178.054688 42.960938 C 172.757812 38.949219 166.171875 36.566406 159.050781 36.566406 C 151.9375 36.566406 145.34375 38.949219 140.046875 42.960938 C 135.550781 46.359375 131.980469 50.941406 129.804688 56.226562 L 101.851562 56.226562 C 99.320312 56.226562 97.265625 58.28125 97.265625 60.8125 L 97.265625 68.515625 L 55.492188 68.515625 C 52.960938 68.523438 50.90625 70.578125 50.90625 73.113281 L 50.90625 316.480469 C 50.90625 319.015625 52.960938 321.070312 55.492188 321.070312 L 262.617188 321.070312 C 265.148438 321.070312 267.203125 319.015625 267.203125 316.480469 L 267.203125 73.113281 C 267.203125 70.578125 265.148438 68.523438 262.617188 68.523438 Z M 145.566406 50.273438 C 149.320312 47.433594 154 45.742188 159.058594 45.742188 C 164.117188 45.742188 168.789062 47.433594 172.542969 50.273438 C 174.714844 51.910156 176.578125 53.9375 178.035156 56.234375 L 140.074219 56.234375 C 141.53125 53.929688 143.398438 51.910156 145.566406 50.273438 Z M 106.433594 65.402344 L 211.671875 65.402344 L 211.671875 80.808594 L 106.433594 80.808594 Z M 258.03125 311.894531 L 60.082031 311.894531 L 60.082031 77.699219 L 97.265625 77.699219 L 97.265625 85.402344 C 97.265625 87.933594 99.320312 89.988281 101.851562 89.988281 L 216.265625 89.988281 C 218.796875 89.988281 220.851562 87.933594 220.851562 85.402344 L 220.851562 77.699219 L 258.035156 77.699219 L 258.035156 311.894531 Z M 104.589844 147.488281 C 102.785156 145.738281 102.734375 142.851562 104.484375 141.035156 C 106.234375 139.230469 109.121094 139.179688 110.933594 140.929688 L 112.050781 142.011719 L 123.792969 129.875 C 125.558594 128.070312 128.453125 128.027344 130.257812 129.792969 C 132.066406 131.554688 132.109375 134.449219 130.34375 136.257812 L 115.4375 151.664062 C 113.671875 153.46875 110.777344 153.511719 108.972656 151.746094 Z M 138.476562 115.117188 L 96.359375 115.117188 C 93.828125 115.117188 91.773438 117.171875 91.773438 119.707031 L 91.773438 161.820312 C 91.773438 164.351562 93.828125 166.40625 96.359375 166.40625 L 138.476562 166.40625 C 141.007812 166.40625 143.0625 164.351562 143.0625 161.820312 L 143.0625 119.707031 C 143.0625 117.171875 141.007812 115.117188 138.476562 115.117188 Z M 133.886719 157.238281 L 100.949219 157.238281 L 100.949219 124.300781 L 133.886719 124.300781 Z M 157.472656 115.117188 L 221.753906 115.117188 C 224.289062 115.117188 226.34375 117.171875 226.34375 119.707031 C 226.34375 122.238281 224.289062 124.292969 221.753906 124.292969 L 157.472656 124.292969 C 154.941406 124.292969 152.886719 122.238281 152.886719 119.707031 C 152.886719 117.171875 154.933594 115.117188 157.472656 115.117188 Z M 152.886719 140.765625 C 152.886719 138.234375 154.941406 136.179688 157.472656 136.179688 L 207.503906 136.179688 C 210.035156 136.179688 212.089844 138.234375 212.089844 140.765625 C 212.089844 143.296875 210.035156 145.355469 207.503906 145.355469 L 157.472656 145.355469 C 154.933594 145.355469 152.886719 143.296875 152.886719 140.765625 Z M 104.589844 265.265625 C 102.785156 263.515625 102.734375 260.628906 104.484375 258.8125 C 106.234375 257.007812 109.121094 256.957031 110.933594 258.707031 L 112.050781 259.789062 L 123.792969 247.652344 C 125.558594 245.847656 128.453125 245.804688 130.257812 247.566406 C 132.066406 249.332031 132.109375 252.226562 130.34375 254.035156 L 115.4375 269.4375 C 113.671875 271.246094 110.777344 271.289062 108.972656 269.523438 Z M 138.476562 232.894531 L 96.359375 232.894531 C 93.828125 232.894531 91.773438 234.949219 91.773438 237.484375 L 91.773438 279.597656 C 91.773438 282.128906 93.828125 284.183594 96.359375 284.183594 L 138.476562 284.183594 C 141.007812 284.183594 143.0625 282.128906 143.0625 279.597656 L 143.0625 237.484375 C 143.0625 234.949219 141.007812 232.894531 138.476562 232.894531 Z M 133.886719 275.007812 L 100.949219 275.007812 L 100.949219 242.070312 L 133.886719 242.070312 Z M 226.335938 237.484375 C 226.335938 240.015625 224.28125 242.070312 221.75 242.070312 L 157.464844 242.070312 C 154.933594 242.070312 152.878906 240.015625 152.878906 237.484375 C 152.878906 234.949219 154.933594 232.894531 157.464844 232.894531 L 221.75 232.894531 C 224.289062 232.894531 226.335938 234.949219 226.335938 237.484375 Z M 212.082031 258.542969 C 212.082031 261.074219 210.027344 263.128906 207.496094 263.128906 L 157.464844 263.128906 C 154.933594 263.128906 152.878906 261.074219 152.878906 258.542969 C 152.878906 256.011719 154.933594 253.957031 157.464844 253.957031 L 207.496094 253.957031 C 210.035156 253.957031 212.082031 256.011719 212.082031 258.542969 Z M 104.589844 206.371094 C 102.785156 204.621094 102.734375 201.734375 104.484375 199.921875 C 106.234375 198.113281 109.121094 198.066406 110.933594 199.816406 L 112.050781 200.894531 L 123.792969 188.761719 C 125.558594 186.957031 128.453125 186.914062 130.257812 188.675781 C 132.066406 190.441406 132.109375 193.335938 130.34375 195.140625 L 115.4375 210.546875 C 113.671875 212.355469 110.777344 212.398438 108.972656 210.632812 Z M 138.476562 174.011719 L 96.359375 174.011719 C 93.828125 174.011719 91.773438 176.066406 91.773438 178.597656 L 91.773438 220.710938 C 91.773438 223.242188 93.828125 225.300781 96.359375 225.300781 L 138.476562 225.300781 C 141.007812 225.300781 143.0625 223.242188 143.0625 220.710938 L 143.0625 178.597656 C 143.0625 176.066406 141.007812 174.011719 138.476562 174.011719 Z M 133.886719 216.125 L 100.949219 216.125 L 100.949219 183.183594 L 133.886719 183.183594 Z M 226.335938 178.597656 C 226.335938 181.128906 224.28125 183.183594 221.75 183.183594 L 157.464844 183.183594 C 154.933594 183.183594 152.878906 181.128906 152.878906 178.597656 C 152.878906 176.066406 154.933594 174.011719 157.464844 174.011719 L 221.75 174.011719 C 224.289062 174.011719 226.335938 176.066406 226.335938 178.597656 Z M 152.886719 199.652344 C 152.886719 197.117188 154.941406 195.0625 157.472656 195.0625 L 207.503906 195.0625 C 210.035156 195.0625 212.089844 197.117188 212.089844 199.652344 C 212.089844 202.183594 210.035156 204.238281 207.503906 204.238281 L 157.472656 204.238281 C 154.933594 204.238281 152.886719 202.191406 152.886719 199.652344 Z M 152.886719 199.652344 " fill-opacity="1" fill-rule="nonzero"/></g><g clip-path="url(#2dc403cd92)"><path fill="#1e419b" d="M 167.761719 304.8125 L 167.761719 339.980469 L 202.929688 339.980469 L 306.691406 236.21875 L 271.527344 201.050781 Z M 333.792969 209.117188 C 337.449219 205.457031 337.449219 199.503906 333.792969 195.847656 L 311.898438 173.949219 C 308.238281 170.292969 302.285156 170.292969 298.628906 173.949219 L 281.464844 191.109375 L 316.632812 226.277344 Z M 333.792969 209.117188 " fill-opacity="1" fill-rule="nonzero"/></g></svg>