<svg xmlns="http://www.w3.org/2000/svg" xmlns:xlink="http://www.w3.org/1999/xlink" width="500" zoomAndPan="magnify" viewBox="0 0 375 374.999991" height="500" preserveAspectRatio="xMidYMid meet" version="1.0"><defs><clipPath id="a209defd80"><path d="M 42.121094 37.5 L 261.871094 37.5 L 261.871094 324 L 42.121094 324 Z M 42.121094 37.5 " clip-rule="nonzero"/></clipPath><clipPath id="ce117178dc"><path d="M 187.5 187.5 L 337.5 187.5 L 337.5 337.5 L 187.5 337.5 Z M 187.5 187.5 " clip-rule="nonzero"/></clipPath></defs><g clip-path="url(#a209defd80)"><path fill="#1e419b" d="M 229.542969 135.164062 L 124.199219 135.164062 L 124.199219 109.320312 C 124.199219 94.03125 136.640625 81.589844 151.929688 81.589844 C 167.222656 81.589844 179.660156 94.03125 179.660156 109.320312 L 179.660156 113.691406 C 179.660156 117.460938 182.714844 120.519531 186.484375 120.519531 L 216.925781 120.519531 C 220.695312 120.519531 223.75 117.460938 223.75 113.691406 L 223.75 109.320312 C 223.75 69.71875 191.53125 37.5 151.929688 37.5 C 112.328125 37.5 80.109375 69.71875 80.109375 109.320312 L 80.109375 135.164062 L 74.320312 135.164062 C 56.617188 135.164062 42.214844 149.566406 42.214844 167.269531 L 42.214844 292.023438 C 42.214844 309.726562 56.617188 324.128906 74.320312 324.128906 L 229.542969 324.128906 C 247.242188 324.128906 261.644531 309.726562 261.644531 292.023438 L 261.644531 167.269531 C 261.644531 149.566406 247.242188 135.164062 229.542969 135.164062 Z M 93.761719 109.320312 C 93.761719 77.246094 119.855469 51.148438 151.929688 51.148438 C 183.1875 51.148438 208.761719 75.925781 210.050781 106.871094 L 193.238281 106.871094 C 191.964844 85.191406 173.921875 67.941406 151.929688 67.941406 C 129.113281 67.941406 110.550781 86.503906 110.550781 109.320312 L 110.550781 135.164062 L 93.761719 135.164062 Z M 247.996094 292.023438 C 247.996094 302.199219 239.71875 310.480469 229.542969 310.480469 L 74.320312 310.480469 C 64.144531 310.480469 55.863281 302.199219 55.863281 292.023438 L 55.863281 167.269531 C 55.863281 157.09375 64.144531 148.8125 74.320312 148.8125 L 229.542969 148.8125 C 239.71875 148.8125 247.996094 157.09375 247.996094 167.269531 Z M 171.664062 230.75 C 177.375 225.363281 180.675781 217.847656 180.675781 209.847656 C 180.675781 193.996094 167.78125 181.101562 151.929688 181.101562 C 136.082031 181.101562 123.1875 193.996094 123.1875 209.847656 C 123.1875 217.84375 126.488281 225.363281 132.199219 230.75 L 122.988281 269.800781 C 122.507812 271.828125 122.984375 273.964844 124.277344 275.601562 C 125.574219 277.238281 127.542969 278.191406 129.628906 278.191406 L 174.234375 278.191406 C 176.316406 278.191406 178.289062 277.238281 179.582031 275.601562 C 180.878906 273.964844 181.351562 271.828125 180.875 269.800781 Z M 157.390625 229.691406 L 165.609375 264.542969 L 138.25 264.542969 L 146.472656 229.691406 C 147.128906 226.910156 145.984375 224.015625 143.601562 222.4375 C 139.367188 219.625 136.835938 214.917969 136.835938 209.847656 C 136.835938 201.523438 143.609375 194.75 151.929688 194.75 C 160.253906 194.75 167.027344 201.523438 167.027344 209.847656 C 167.027344 214.917969 164.496094 219.625 160.261719 222.4375 C 157.878906 224.015625 156.734375 226.910156 157.390625 229.691406 Z M 157.390625 229.691406 " fill-opacity="1" fill-rule="nonzero"/></g><g clip-path="url(#ce117178dc)"><path fill="#1e419b" d="M 337.5 262.5 C 337.5 263.726562 337.46875 264.953125 337.410156 266.179688 C 337.347656 267.40625 337.257812 268.628906 337.140625 269.851562 C 337.019531 271.074219 336.867188 272.289062 336.6875 273.503906 C 336.507812 274.71875 336.296875 275.929688 336.058594 277.132812 C 335.820312 278.335938 335.550781 279.53125 335.253906 280.722656 C 334.953125 281.914062 334.625 283.097656 334.269531 284.269531 C 333.914062 285.445312 333.527344 286.609375 333.117188 287.765625 C 332.703125 288.921875 332.261719 290.066406 331.789062 291.203125 C 331.320312 292.335938 330.824219 293.457031 330.300781 294.566406 C 329.773438 295.675781 329.222656 296.773438 328.644531 297.855469 C 328.066406 298.9375 327.460938 300.003906 326.828125 301.058594 C 326.199219 302.109375 325.542969 303.148438 324.859375 304.167969 C 324.179688 305.1875 323.472656 306.191406 322.742188 307.175781 C 322.007812 308.164062 321.253906 309.128906 320.476562 310.078125 C 319.695312 311.027344 318.894531 311.957031 318.070312 312.867188 C 317.246094 313.777344 316.402344 314.664062 315.53125 315.53125 C 314.664062 316.402344 313.777344 317.246094 312.867188 318.070312 C 311.957031 318.894531 311.027344 319.695312 310.078125 320.476562 C 309.128906 321.253906 308.164062 322.007812 307.175781 322.742188 C 306.191406 323.472656 305.1875 324.179688 304.167969 324.859375 C 303.148438 325.542969 302.109375 326.199219 301.058594 326.828125 C 300.003906 327.460938 298.9375 328.066406 297.855469 328.644531 C 296.773438 329.222656 295.675781 329.773438 294.566406 330.300781 C 293.457031 330.824219 292.335938 331.320312 291.203125 331.789062 C 290.066406 332.261719 288.921875 332.703125 287.765625 333.117188 C 286.609375 333.527344 285.445312 333.914062 284.269531 334.269531 C 283.097656 334.625 281.914062 334.953125 280.722656 335.253906 C 279.53125 335.550781 278.335938 335.820312 277.132812 336.058594 C 275.929688 336.296875 274.71875 336.507812 273.503906 336.6875 C 272.289062 336.867188 271.074219 337.019531 269.851562 337.140625 C 268.628906 337.257812 267.40625 337.347656 266.179688 337.410156 C 264.953125 337.46875 263.726562 337.5 262.5 337.5 C 261.273438 337.5 260.046875 337.46875 258.820312 337.410156 C 257.59375 337.347656 256.371094 337.257812 255.148438 337.140625 C 253.925781 337.019531 252.710938 336.867188 251.496094 336.6875 C 250.28125 336.507812 249.070312 336.296875 247.867188 336.058594 C 246.664062 335.820312 245.46875 335.550781 244.277344 335.253906 C 243.085938 334.953125 241.902344 334.625 240.730469 334.269531 C 239.554688 333.914062 238.390625 333.527344 237.234375 333.117188 C 236.078125 332.703125 234.933594 332.261719 233.796875 331.789062 C 232.664062 331.320312 231.542969 330.824219 230.433594 330.300781 C 229.324219 329.773438 228.226562 329.222656 227.144531 328.644531 C 226.0625 328.066406 224.996094 327.460938 223.941406 326.828125 C 222.890625 326.199219 221.851562 325.542969 220.832031 324.859375 C 219.8125 324.179688 218.808594 323.472656 217.824219 322.742188 C 216.835938 322.007812 215.871094 321.253906 214.921875 320.476562 C 213.972656 319.695312 213.042969 318.894531 212.132812 318.070312 C 211.222656 317.246094 210.335938 316.402344 209.46875 315.53125 C 208.597656 314.664062 207.753906 313.777344 206.929688 312.867188 C 206.105469 311.957031 205.304688 311.027344 204.523438 310.078125 C 203.746094 309.128906 202.992188 308.164062 202.257812 307.175781 C 201.527344 306.191406 200.820312 305.1875 200.140625 304.167969 C 199.457031 303.148438 198.800781 302.109375 198.171875 301.058594 C 197.539062 300.003906 196.933594 298.9375 196.355469 297.855469 C 195.777344 296.773438 195.226562 295.675781 194.699219 294.566406 C 194.175781 293.457031 193.679688 292.335938 193.210938 291.203125 C 192.738281 290.066406 192.296875 288.921875 191.882812 287.765625 C 191.46875 286.609375 191.085938 285.445312 190.730469 284.269531 C 190.375 283.097656 190.046875 281.914062 189.746094 280.722656 C 189.449219 279.53125 189.179688 278.335938 188.941406 277.132812 C 188.703125 275.929688 188.492188 274.71875 188.3125 273.503906 C 188.132812 272.289062 187.980469 271.074219 187.859375 269.851562 C 187.742188 268.628906 187.652344 267.40625 187.589844 266.179688 C 187.53125 264.953125 187.5 263.726562 187.5 262.5 C 187.5 261.273438 187.53125 260.046875 187.589844 258.820312 C 187.652344 257.59375 187.742188 256.371094 187.859375 255.148438 C 187.980469 253.925781 188.132812 252.710938 188.3125 251.496094 C 188.492188 250.28125 188.703125 249.070312 188.941406 247.867188 C 189.179688 246.664062 189.449219 245.46875 189.746094 244.277344 C 190.046875 243.085938 190.375 241.902344 190.730469 240.730469 C 191.085938 239.554688 191.46875 238.390625 191.882812 237.234375 C 192.296875 236.078125 192.738281 234.933594 193.210938 233.796875 C 193.679688 232.664062 194.175781 231.542969 194.699219 230.433594 C 195.226562 229.324219 195.777344 228.226562 196.355469 227.144531 C 196.933594 226.0625 197.539062 224.996094 198.171875 223.941406 C 198.800781 222.890625 199.457031 221.851562 200.140625 220.832031 C 200.820312 219.8125 201.527344 218.808594 202.257812 217.824219 C 202.992188 216.835938 203.746094 215.871094 204.523438 214.921875 C 205.304688 213.972656 206.105469 213.042969 206.929688 212.132812 C 207.753906 211.222656 208.597656 210.335938 209.46875 209.46875 C 210.335938 208.597656 211.222656 207.753906 212.132812 206.929688 C 213.042969 206.105469 213.972656 205.304688 214.921875 204.523438 C 215.871094 203.746094 216.835938 202.992188 217.824219 202.257812 C 218.808594 201.527344 219.8125 200.820312 220.832031 200.140625 C 221.851562 199.457031 222.890625 198.800781 223.941406 198.171875 C 224.996094 197.539062 226.0625 196.933594 227.144531 196.355469 C 228.226562 195.777344 229.324219 195.226562 230.433594 194.699219 C 231.542969 194.175781 232.664062 193.679688 233.796875 193.210938 C 234.933594 192.738281 236.078125 192.296875 237.234375 191.882812 C 238.390625 191.46875 239.554688 191.085938 240.730469 190.730469 C 241.902344 190.375 243.085938 190.046875 244.277344 189.746094 C 245.46875 189.449219 246.664062 189.179688 247.867188 188.941406 C 249.070312 188.703125 250.28125 188.492188 251.496094 188.3125 C 252.710938 188.132812 253.925781 187.980469 255.148438 187.859375 C 256.371094 187.742188 257.59375 187.652344 258.820312 187.589844 C 260.046875 187.53125 261.273438 187.5 262.5 187.5 C 263.726562 187.5 264.953125 187.53125 266.179688 187.589844 C 267.40625 187.652344 268.628906 187.742188 269.851562 187.859375 C 271.074219 187.980469 272.289062 188.132812 273.503906 188.3125 C 274.71875 188.492188 275.929688 188.703125 277.132812 188.941406 C 278.335938 189.179688 279.53125 189.449219 280.722656 189.746094 C 281.914062 190.046875 283.097656 190.375 284.269531 190.730469 C 285.445312 191.085938 286.609375 191.46875 287.765625 191.882812 C 288.921875 192.296875 290.066406 192.738281 291.203125 193.210938 C 292.335938 193.679688 293.457031 194.175781 294.566406 194.699219 C 295.675781 195.226562 296.773438 195.777344 297.855469 196.355469 C 298.9375 196.933594 300.003906 197.539062 301.058594 198.171875 C 302.109375 198.800781 303.148438 199.457031 304.167969 200.140625 C 305.1875 200.820312 306.191406 201.527344 307.175781 202.257812 C 308.164062 202.992188 309.128906 203.746094 310.078125 204.523438 C 311.027344 205.304688 311.957031 206.105469 312.867188 206.929688 C 313.777344 207.753906 314.664062 208.597656 315.53125 209.46875 C 316.402344 210.335938 317.246094 211.222656 318.070312 212.132812 C 318.894531 213.042969 319.695312 213.972656 320.476562 214.921875 C 321.253906 215.871094 322.007812 216.835938 322.742188 217.824219 C 323.472656 218.808594 324.179688 219.8125 324.859375 220.832031 C 325.542969 221.851562 326.199219 222.890625 326.828125 223.941406 C 327.460938 224.996094 328.066406 226.0625 328.644531 227.144531 C 329.222656 228.226562 329.773438 229.324219 330.300781 230.433594 C 330.824219 231.542969 331.320312 232.664062 331.789062 233.796875 C 332.261719 234.933594 332.703125 236.078125 333.117188 237.234375 C 333.53125 238.390625 333.914062 239.554688 334.269531 240.730469 C 334.625 241.902344 334.953125 243.085938 335.253906 244.277344 C 335.550781 245.46875 335.820312 246.664062 336.058594 247.867188 C 336.296875 249.070312 336.507812 250.28125 336.6875 251.496094 C 336.867188 252.710938 337.019531 253.925781 337.140625 255.148438 C 337.257812 256.371094 337.347656 257.59375 337.410156 258.820312 C 337.46875 260.046875 337.5 261.273438 337.5 262.5 Z M 337.5 262.5 " fill-opacity="1" fill-rule="nonzero"/></g><path fill="#f2f2f2" d="M 303.679688 248.332031 C 307.691406 244.316406 307.691406 237.808594 303.675781 233.792969 C 299.660156 229.777344 293.148438 229.78125 289.136719 233.796875 L 253.554688 269.394531 L 235.789062 251.632812 C 231.777344 247.617188 225.265625 247.617188 221.25 251.632812 C 217.238281 255.648438 217.238281 262.15625 221.25 266.171875 L 246.285156 291.207031 C 248.214844 293.132812 250.828125 294.21875 253.554688 294.21875 C 256.285156 294.21875 258.898438 293.132812 260.828125 291.203125 Z M 303.679688 248.332031 " fill-opacity="1" fill-rule="nonzero"/></svg>