<svg xmlns="http://www.w3.org/2000/svg" xmlns:xlink="http://www.w3.org/1999/xlink" width="500" zoomAndPan="magnify" viewBox="0 0 375 374.999991" height="500" preserveAspectRatio="xMidYMid meet" version="1.0"><defs><clipPath id="a596fb26c6"><path d="M 47.671875 63.035156 L 296.671875 63.035156 L 296.671875 312 L 47.671875 312 Z M 47.671875 63.035156 " clip-rule="nonzero"/></clipPath><clipPath id="75f006f73c"><path d="M 96 63.035156 L 221 63.035156 L 221 149 L 96 149 Z M 96 63.035156 " clip-rule="nonzero"/></clipPath><clipPath id="d9645066e2"><path d="M 138 148.742188 L 343.433594 148.742188 L 343.433594 312 L 138 312 Z M 138 148.742188 " clip-rule="nonzero"/></clipPath></defs><g clip-path="url(#a596fb26c6)"><path fill="#1e419b" d="M 257 311.964844 L 87.273438 311.964844 C 85.976562 311.964844 84.683594 311.902344 83.394531 311.773438 C 82.101562 311.644531 80.820312 311.457031 79.550781 311.203125 C 78.277344 310.949219 77.019531 310.636719 75.777344 310.257812 C 74.539062 309.882812 73.316406 309.445312 72.121094 308.949219 C 70.921875 308.453125 69.75 307.898438 68.605469 307.289062 C 67.460938 306.675781 66.351562 306.011719 65.273438 305.289062 C 64.195312 304.570312 63.152344 303.796875 62.152344 302.976562 C 61.148438 302.152344 60.1875 301.28125 59.273438 300.363281 C 58.355469 299.449219 57.484375 298.488281 56.660156 297.484375 C 55.839844 296.484375 55.066406 295.441406 54.347656 294.363281 C 53.625 293.285156 52.960938 292.175781 52.347656 291.03125 C 51.738281 289.886719 51.183594 288.714844 50.6875 287.515625 C 50.191406 286.320312 49.753906 285.097656 49.378906 283.859375 C 49 282.617188 48.6875 281.359375 48.433594 280.085938 C 48.179688 278.816406 47.992188 277.535156 47.863281 276.242188 C 47.734375 274.953125 47.671875 273.660156 47.671875 272.363281 L 47.671875 102.636719 C 47.671875 101.339844 47.734375 100.046875 47.863281 98.753906 C 47.992188 97.464844 48.179688 96.183594 48.433594 94.910156 C 48.6875 93.640625 49 92.382812 49.378906 91.140625 C 49.753906 89.898438 50.191406 88.679688 50.6875 87.480469 C 51.183594 86.285156 51.738281 85.113281 52.347656 83.96875 C 52.960938 82.824219 53.625 81.714844 54.347656 80.636719 C 55.066406 79.554688 55.839844 78.515625 56.660156 77.511719 C 57.484375 76.511719 58.355469 75.550781 59.273438 74.632812 C 60.1875 73.714844 61.148438 72.847656 62.152344 72.023438 C 63.152344 71.199219 64.195312 70.429688 65.273438 69.707031 C 66.351562 68.988281 67.460938 68.320312 68.605469 67.710938 C 69.75 67.097656 70.921875 66.546875 72.121094 66.050781 C 73.316406 65.550781 74.539062 65.117188 75.777344 64.738281 C 77.019531 64.363281 78.277344 64.046875 79.550781 63.796875 C 80.820312 63.542969 82.101562 63.351562 83.394531 63.226562 C 84.683594 63.097656 85.976562 63.035156 87.273438 63.035156 L 240.820312 63.035156 C 241.640625 63.042969 242.421875 63.210938 243.171875 63.546875 C 243.917969 63.882812 244.566406 64.351562 245.121094 64.957031 L 295.246094 121.53125 C 296.164062 122.609375 296.617188 123.851562 296.601562 125.265625 L 296.601562 272.363281 C 296.601562 273.660156 296.539062 274.953125 296.410156 276.242188 C 296.285156 277.535156 296.09375 278.816406 295.839844 280.085938 C 295.589844 281.359375 295.273438 282.617188 294.898438 283.859375 C 294.519531 285.097656 294.085938 286.320312 293.585938 287.515625 C 293.089844 288.714844 292.539062 289.886719 291.925781 291.03125 C 291.316406 292.175781 290.648438 293.285156 289.929688 294.363281 C 289.207031 295.441406 288.4375 296.484375 287.613281 297.484375 C 286.789062 298.488281 285.921875 299.449219 285.003906 300.363281 C 284.085938 301.28125 283.125 302.152344 282.125 302.976562 C 281.121094 303.796875 280.082031 304.570312 279 305.289062 C 277.921875 306.011719 276.8125 306.675781 275.667969 307.289062 C 274.523438 307.898438 273.351562 308.453125 272.15625 308.949219 C 270.957031 309.445312 269.738281 309.882812 268.496094 310.257812 C 267.253906 310.636719 266 310.949219 264.726562 311.203125 C 263.453125 311.457031 262.171875 311.644531 260.882812 311.773438 C 259.589844 311.902344 258.296875 311.964844 257 311.964844 Z M 87.273438 74.347656 C 86.347656 74.347656 85.425781 74.394531 84.503906 74.484375 C 83.582031 74.578125 82.664062 74.710938 81.757812 74.894531 C 80.847656 75.074219 79.949219 75.296875 79.0625 75.566406 C 78.175781 75.835938 77.304688 76.148438 76.449219 76.503906 C 75.59375 76.855469 74.757812 77.253906 73.941406 77.691406 C 73.125 78.125 72.328125 78.601562 71.558594 79.117188 C 70.789062 79.632812 70.046875 80.183594 69.328125 80.769531 C 68.613281 81.359375 67.929688 81.980469 67.273438 82.632812 C 66.617188 83.289062 65.996094 83.976562 65.410156 84.691406 C 64.820312 85.40625 64.269531 86.152344 63.753906 86.921875 C 63.242188 87.691406 62.765625 88.484375 62.328125 89.300781 C 61.890625 90.121094 61.496094 90.957031 61.140625 91.8125 C 60.785156 92.667969 60.476562 93.539062 60.207031 94.425781 C 59.9375 95.3125 59.710938 96.210938 59.53125 97.117188 C 59.351562 98.027344 59.214844 98.941406 59.125 99.863281 C 59.03125 100.785156 58.988281 101.710938 58.988281 102.636719 L 58.988281 272.363281 C 58.988281 273.289062 59.03125 274.210938 59.125 275.132812 C 59.214844 276.054688 59.351562 276.972656 59.53125 277.878906 C 59.710938 278.789062 59.9375 279.6875 60.207031 280.574219 C 60.476562 281.460938 60.785156 282.332031 61.140625 283.1875 C 61.496094 284.042969 61.890625 284.878906 62.328125 285.695312 C 62.765625 286.511719 63.242188 287.308594 63.753906 288.078125 C 64.269531 288.847656 64.820312 289.589844 65.410156 290.308594 C 65.996094 291.023438 66.617188 291.707031 67.273438 292.363281 C 67.929688 293.019531 68.613281 293.640625 69.328125 294.226562 C 70.046875 294.816406 70.789062 295.367188 71.558594 295.882812 C 72.328125 296.398438 73.125 296.871094 73.941406 297.308594 C 74.757812 297.746094 75.59375 298.140625 76.449219 298.496094 C 77.304688 298.851562 78.175781 299.164062 79.0625 299.429688 C 79.949219 299.699219 80.847656 299.925781 81.757812 300.105469 C 82.664062 300.285156 83.582031 300.421875 84.503906 300.511719 C 85.425781 300.605469 86.347656 300.648438 87.273438 300.648438 L 257 300.648438 C 257.925781 300.648438 258.851562 300.605469 259.773438 300.511719 C 260.695312 300.421875 261.609375 300.285156 262.519531 300.105469 C 263.425781 299.925781 264.324219 299.699219 265.210938 299.429688 C 266.097656 299.164062 266.96875 298.851562 267.824219 298.496094 C 268.679688 298.140625 269.515625 297.746094 270.335938 297.308594 C 271.152344 296.871094 271.945312 296.398438 272.714844 295.882812 C 273.484375 295.367188 274.230469 294.816406 274.945312 294.226562 C 275.660156 293.640625 276.347656 293.019531 277.003906 292.363281 C 277.65625 291.707031 278.277344 291.023438 278.867188 290.308594 C 279.453125 289.589844 280.003906 288.847656 280.519531 288.078125 C 281.035156 287.308594 281.511719 286.511719 281.945312 285.695312 C 282.382812 284.878906 282.78125 284.042969 283.132812 283.1875 C 283.488281 282.332031 283.800781 281.460938 284.070312 280.574219 C 284.339844 279.6875 284.5625 278.789062 284.742188 277.878906 C 284.925781 276.972656 285.058594 276.054688 285.152344 275.132812 C 285.242188 274.210938 285.289062 273.289062 285.289062 272.363281 L 285.289062 127.644531 L 238.21875 74.347656 Z M 87.273438 74.347656 " fill-opacity="1" fill-rule="nonzero"/></g><g clip-path="url(#75f006f73c)"><path fill="#1e419b" d="M 215.019531 148.6875 L 101.871094 148.6875 C 101.503906 148.683594 101.136719 148.640625 100.777344 148.5625 C 100.414062 148.484375 100.0625 148.375 99.722656 148.230469 C 99.382812 148.085938 99.058594 147.910156 98.753906 147.703125 C 98.449219 147.496094 98.164062 147.261719 97.902344 147 C 97.640625 146.738281 97.40625 146.453125 97.199219 146.148438 C 96.996094 145.84375 96.820312 145.519531 96.675781 145.179688 C 96.527344 144.839844 96.417969 144.488281 96.339844 144.128906 C 96.261719 143.765625 96.222656 143.402344 96.214844 143.03125 L 96.214844 68.691406 C 96.214844 68.320312 96.25 67.953125 96.324219 67.589844 C 96.394531 67.222656 96.503906 66.871094 96.644531 66.527344 C 96.785156 66.183594 96.960938 65.859375 97.167969 65.550781 C 97.375 65.238281 97.609375 64.953125 97.871094 64.691406 C 98.132812 64.429688 98.417969 64.195312 98.726562 63.988281 C 99.039062 63.78125 99.363281 63.605469 99.707031 63.464844 C 100.050781 63.324219 100.402344 63.214844 100.769531 63.144531 C 101.132812 63.070312 101.5 63.035156 101.871094 63.035156 L 215.019531 63.035156 C 215.394531 63.035156 215.761719 63.070312 216.125 63.144531 C 216.488281 63.214844 216.84375 63.324219 217.1875 63.464844 C 217.53125 63.605469 217.855469 63.78125 218.164062 63.988281 C 218.472656 64.195312 218.757812 64.429688 219.023438 64.691406 C 219.285156 64.953125 219.519531 65.238281 219.726562 65.550781 C 219.933594 65.859375 220.105469 66.183594 220.25 66.527344 C 220.390625 66.871094 220.496094 67.222656 220.570312 67.589844 C 220.644531 67.953125 220.679688 68.320312 220.679688 68.691406 L 220.679688 143.03125 C 220.679688 143.402344 220.644531 143.769531 220.570312 144.136719 C 220.496094 144.5 220.390625 144.851562 220.25 145.195312 C 220.105469 145.539062 219.933594 145.867188 219.726562 146.175781 C 219.519531 146.484375 219.285156 146.769531 219.023438 147.03125 C 218.757812 147.292969 218.472656 147.527344 218.164062 147.734375 C 217.855469 147.941406 217.53125 148.117188 217.1875 148.257812 C 216.84375 148.402344 216.488281 148.507812 216.125 148.582031 C 215.761719 148.652344 215.394531 148.6875 215.019531 148.6875 Z M 107.640625 137.375 L 209.476562 137.375 L 209.476562 74.347656 L 107.640625 74.347656 Z M 107.640625 137.375 " fill-opacity="1" fill-rule="nonzero"/></g><path fill="#1e419b" d="M 242.289062 311.964844 L 101.984375 311.964844 C 101.613281 311.964844 101.246094 311.929688 100.882812 311.855469 C 100.515625 311.78125 100.164062 311.675781 99.820312 311.535156 C 99.476562 311.390625 99.148438 311.21875 98.839844 311.011719 C 98.53125 310.804688 98.246094 310.570312 97.984375 310.308594 C 97.722656 310.042969 97.488281 309.757812 97.28125 309.449219 C 97.074219 309.140625 96.898438 308.816406 96.757812 308.472656 C 96.617188 308.128906 96.507812 307.773438 96.4375 307.410156 C 96.363281 307.046875 96.328125 306.679688 96.328125 306.308594 L 96.328125 202.773438 C 96.328125 202.402344 96.363281 202.035156 96.4375 201.671875 C 96.507812 201.304688 96.617188 200.953125 96.757812 200.609375 C 96.898438 200.265625 97.074219 199.941406 97.28125 199.632812 C 97.488281 199.324219 97.722656 199.035156 97.984375 198.773438 C 98.246094 198.511719 98.53125 198.277344 98.839844 198.070312 C 99.148438 197.863281 99.476562 197.691406 99.820312 197.546875 C 100.164062 197.40625 100.515625 197.296875 100.882812 197.226562 C 101.246094 197.152344 101.613281 197.117188 101.984375 197.117188 L 242.289062 197.117188 C 242.660156 197.117188 243.03125 197.152344 243.394531 197.226562 C 243.757812 197.296875 244.113281 197.40625 244.457031 197.546875 C 244.796875 197.691406 245.125 197.863281 245.433594 198.070312 C 245.742188 198.277344 246.027344 198.511719 246.289062 198.773438 C 246.554688 199.035156 246.789062 199.324219 246.996094 199.632812 C 247.199219 199.941406 247.375 200.265625 247.515625 200.609375 C 247.660156 200.953125 247.765625 201.304688 247.839844 201.671875 C 247.910156 202.035156 247.949219 202.402344 247.949219 202.773438 L 247.949219 306.308594 C 247.949219 306.679688 247.910156 307.046875 247.839844 307.410156 C 247.765625 307.773438 247.660156 308.128906 247.515625 308.472656 C 247.375 308.816406 247.199219 309.140625 246.996094 309.449219 C 246.789062 309.757812 246.554688 310.042969 246.289062 310.308594 C 246.027344 310.570312 245.742188 310.804688 245.433594 311.011719 C 245.125 311.21875 244.796875 311.390625 244.457031 311.535156 C 244.113281 311.675781 243.757812 311.78125 243.394531 311.855469 C 243.03125 311.929688 242.660156 311.964844 242.289062 311.964844 Z M 107.640625 300.648438 L 236.632812 300.648438 L 236.632812 208.433594 L 107.640625 208.433594 Z M 107.640625 300.648438 " fill-opacity="1" fill-rule="nonzero"/><path fill="#1e419b" d="M 187.414062 123.003906 C 187.042969 123.003906 186.671875 122.96875 186.308594 122.894531 C 185.945312 122.824219 185.589844 122.714844 185.246094 122.574219 C 184.90625 122.429688 184.578125 122.257812 184.269531 122.050781 C 183.960938 121.84375 183.675781 121.609375 183.414062 121.347656 C 183.148438 121.085938 182.914062 120.796875 182.707031 120.488281 C 182.503906 120.179688 182.328125 119.855469 182.1875 119.511719 C 182.042969 119.167969 181.9375 118.816406 181.863281 118.449219 C 181.792969 118.085938 181.753906 117.71875 181.753906 117.347656 L 181.753906 94.714844 C 181.753906 94.34375 181.792969 93.976562 181.863281 93.613281 C 181.9375 93.25 182.042969 92.894531 182.1875 92.550781 C 182.328125 92.207031 182.503906 91.882812 182.707031 91.574219 C 182.914062 91.265625 183.148438 90.980469 183.414062 90.714844 C 183.675781 90.453125 183.960938 90.21875 184.269531 90.011719 C 184.578125 89.804688 184.90625 89.632812 185.246094 89.488281 C 185.589844 89.347656 185.945312 89.238281 186.308594 89.167969 C 186.671875 89.09375 187.042969 89.058594 187.414062 89.058594 C 187.785156 89.058594 188.152344 89.09375 188.515625 89.167969 C 188.878906 89.238281 189.234375 89.347656 189.578125 89.488281 C 189.921875 89.632812 190.246094 89.804688 190.554688 90.011719 C 190.863281 90.21875 191.152344 90.453125 191.414062 90.714844 C 191.675781 90.980469 191.910156 91.265625 192.117188 91.574219 C 192.324219 91.882812 192.496094 92.207031 192.640625 92.550781 C 192.78125 92.894531 192.890625 93.25 192.960938 93.613281 C 193.035156 93.976562 193.070312 94.34375 193.070312 94.714844 L 193.070312 117.347656 C 193.0625 117.714844 193.019531 118.082031 192.945312 118.441406 C 192.867188 118.804688 192.753906 119.15625 192.609375 119.496094 C 192.464844 119.835938 192.289062 120.15625 192.082031 120.464844 C 191.875 120.769531 191.640625 121.054688 191.382812 121.316406 C 191.121094 121.574219 190.835938 121.808594 190.53125 122.015625 C 190.222656 122.222656 189.902344 122.398438 189.5625 122.542969 C 189.222656 122.6875 188.871094 122.800781 188.507812 122.878906 C 188.148438 122.953125 187.78125 122.996094 187.414062 123.003906 Z M 187.414062 123.003906 " fill-opacity="1" fill-rule="nonzero"/><g clip-path="url(#d9645066e2)"><path fill="#1e419b" d="M 140.941406 311.90625 C 140.980469 311.910156 141.027344 311.910156 141.066406 311.910156 C 141.34375 311.910156 141.613281 311.863281 141.875 311.769531 C 142.136719 311.675781 142.375 311.539062 142.59375 311.363281 C 142.808594 311.1875 142.988281 310.980469 143.128906 310.742188 C 143.273438 310.503906 143.375 310.25 143.429688 309.976562 C 147.507812 289.835938 162.480469 270.90625 184.503906 258.046875 C 204.917969 246.125 229.4375 240.671875 250.535156 243.289062 L 250.535156 276.722656 C 250.535156 277.175781 250.652344 277.589844 250.886719 277.976562 C 251.121094 278.359375 251.4375 278.65625 251.835938 278.863281 C 252.238281 279.070312 252.660156 279.15625 253.109375 279.125 C 253.558594 279.09375 253.96875 278.949219 254.335938 278.691406 L 342.765625 215.992188 C 342.921875 215.878906 343.0625 215.753906 343.191406 215.605469 C 343.316406 215.460938 343.425781 215.304688 343.511719 215.132812 C 343.601562 214.960938 343.667969 214.78125 343.714844 214.59375 C 343.757812 214.410156 343.78125 214.21875 343.78125 214.027344 C 343.78125 213.832031 343.757812 213.644531 343.714844 213.457031 C 343.667969 213.269531 343.601562 213.089844 343.511719 212.921875 C 343.425781 212.75 343.316406 212.589844 343.191406 212.445312 C 343.0625 212.300781 342.921875 212.171875 342.765625 212.0625 L 254.335938 149.359375 C 253.96875 149.101562 253.558594 148.953125 253.109375 148.921875 C 252.660156 148.890625 252.234375 148.980469 251.835938 149.1875 C 251.4375 149.394531 251.117188 149.691406 250.886719 150.074219 C 250.652344 150.460938 250.535156 150.878906 250.535156 151.328125 L 250.535156 179.574219 C 221.347656 183.65625 192.265625 199.664062 170.445312 223.730469 C 159.304688 236.019531 150.855469 249.527344 145.320312 263.863281 C 139.417969 279.148438 137.175781 294.585938 138.664062 309.738281 C 138.695312 310.023438 138.773438 310.296875 138.898438 310.554688 C 139.023438 310.816406 139.191406 311.042969 139.402344 311.242188 C 139.609375 311.441406 139.847656 311.597656 140.113281 311.710938 C 140.378906 311.824219 140.652344 311.890625 140.941406 311.90625 Z M 140.941406 311.90625 " fill-opacity="1" fill-rule="evenodd"/></g></svg>